<svg xmlns="http://www.w3.org/2000/svg" width="60.705" height="60.816" viewBox="0 0 60.705 60.816"><defs><style>.a{fill:#324e6f;}</style></defs><g transform="translate(-0.467 -0.001)"><g transform="translate(29.897 28.625)"><path class="a" d="M260.456,246.651l-8.257-5.073a.912.912,0,0,0-.333-.122L249.281,241a.891.891,0,0,0-.31,1.755l2.439.43,8.112,4.985a.891.891,0,0,0,.933-1.518Z" transform="translate(-248.236 -240.986)"/></g><g transform="translate(0.467 0.001)"><g transform="translate(0 0)"><path class="a" d="M60.932,34.576a.891.891,0,0,0-1.259-.043L56.06,37.909,39.509,21.579,60.89,1.542a.891.891,0,0,0-1.218-1.3L37.615,20.912A.9.9,0,0,0,37.6,22.2l1.464,1.444-.467.413-9.785-.843a.893.893,0,0,0-.446.077l-7.753,3.531c-.023-.006-.045-.012-.069-.016l-4.46-.787.361-.922a.891.891,0,0,0-.5-1.152L1.689,18.24a.891.891,0,0,0-.662,1.654l13.434,5.374L6.545,45.5,1.655,43.769a.891.891,0,1,0-.595,1.68l5.7,2.02a.9.9,0,0,0,1.127-.515l1.323-3.381,3.467,1.943-.382.62a3.74,3.74,0,0,0,4.339,5.522,3.738,3.738,0,0,0,4.853,2.994,3.74,3.74,0,0,0,4.853,3,3.739,3.739,0,0,0,6.883,1.4l.608-.985.5.307a3.735,3.735,0,0,0,5.147-1.229,3.72,3.72,0,0,0,.545-2.183,3.7,3.7,0,0,0,.865.1,3.772,3.772,0,0,0,3.2-1.784,3.715,3.715,0,0,0,.547-2.183,3.7,3.7,0,0,0,.862.1,3.772,3.772,0,0,0,3.2-1.784,3.714,3.714,0,0,0,.547-2.184A3.741,3.741,0,0,0,52.066,40.4l-.611-.375L53.5,37.888l1.915,1.89a.9.9,0,0,0,1.234.017l4.237-3.96A.891.891,0,0,0,60.932,34.576ZM17.15,49.128a1.96,1.96,0,0,1-3.336-2.058l4.99-8.088a1.97,1.97,0,0,1,2.665-.659,2.027,2.027,0,0,1,.638,2.772ZM22,52.122a1.96,1.96,0,1,1-3.336-2.058l3.992-6.47a1.97,1.97,0,0,1,2.665-.659,2.027,2.027,0,0,1,.638,2.772Zm4.853,2.994a1.96,1.96,0,0,1-2.7.639,1.978,1.978,0,0,1-.639-2.7l2.994-4.853a1.97,1.97,0,0,1,2.665-.659,2.027,2.027,0,0,1,.638,2.772Zm6.815-.186-1.962,3.18a1.96,1.96,0,0,1-3.336-2.059l2-3.235a1.97,1.97,0,0,1,2.665-.659A2.027,2.027,0,0,1,33.671,54.93ZM49.9,39.073,45.485,36.36a.891.891,0,0,0-.933,1.518l6.58,4.043a1.96,1.96,0,1,1-2.052,3.34l-7.057-4.336a.891.891,0,0,0-.933,1.518l5.438,3.341a1.96,1.96,0,0,1-2.052,3.34L39.548,46.1a.891.891,0,1,0-.933,1.518l3.309,2.033a1.96,1.96,0,0,1-2.052,3.34s-2.91-1.786-2.937-1.8a.891.891,0,0,0-.853,1.562l1.238.76a1.96,1.96,0,0,1-2.052,3.34l-.5-.306.419-.679a3.857,3.857,0,0,0,.456-2.933A3.684,3.684,0,0,0,31.8,50.119a3.862,3.862,0,0,0-.009-1.8,3.684,3.684,0,0,0-3.846-2.814A3.792,3.792,0,0,0,26.231,41.4a3.709,3.709,0,0,0-2.142-.506,3.73,3.73,0,0,0-6.8-2.849L13.617,44,9.869,41.9,15.42,27.709l3.023.533A3.741,3.741,0,0,0,22.9,34l5.218-2.377A.891.891,0,0,0,27.383,30l-5.218,2.376a1.96,1.96,0,0,1-1.625-3.568l8.35-3.8,9.932.855q.038,0,.076,0a.892.892,0,0,0,.59-.223l.845-.747,11.9,11.741Z" transform="translate(-0.467 -0.001)"/></g></g></g></svg>