<svg xmlns="http://www.w3.org/2000/svg" width="182.215" height="40" viewBox="0 0 182.215 40"><defs><style>.a{fill:#3cb194;}.b{fill:#324f71;}.c{fill:#3cb195;}.d{fill:#334f71;}.e{fill:#fff;}</style></defs><g transform="translate(-0.006 -0.001)"><g transform="translate(0.006 0.001)"><path class="a" d="M22.351,33.076c3.809,0,7.618.02,11.427-.02.771,0,.952.221.941.941-.05,1.962-1.034,3.123-2.964,3.127-7.047.019-14.094.082-21.141-.069a11.16,11.16,0,0,1-4.706-21,1.628,1.628,0,0,0,.762-.863,7.649,7.649,0,0,1,7.218-5.24c.59-.03.724-.348.914-.744A15.392,15.392,0,0,1,25.335.513,15.816,15.816,0,0,1,43.326,8.336,1.264,1.264,0,0,0,44.45,9.1c6.443.763,11.427,5.255,12.467,11.276a37.385,37.385,0,0,1,.267,3.791c.029.409-.162.558-.56.543-.952-.013-1.9-.026-2.857,0-.571.019-.714-.268-.716-.744s-.01-.991-.027-1.488A9.76,9.76,0,0,0,42.046,13.1c-.834.089-1.255-.03-1.524-.954a11.806,11.806,0,0,0-22.744.973,3.686,3.686,0,0,0-.145.538c-.046.631-.3.744-.924.536a5.8,5.8,0,0,0-3.826-.06,3.645,3.645,0,0,0-2.55,3.668c.029.7-.208.93-.859,1.116a7.187,7.187,0,0,0,.514,14.044,4.675,4.675,0,0,0,.937.108Q16.639,33.08,22.351,33.076Z" transform="translate(-0.006 -0.001)"/><path class="b" d="M402.132,68.216c0,3.68-.017,7.361.015,11.047,0,.653-.162.937-.832,1.08a27.19,27.19,0,0,1-8.952.79c-4.495-.537-6.866-3.017-7.306-7.563a15.61,15.61,0,0,1,.19-4.925,7.038,7.038,0,0,1,6.424-5.7,10,10,0,0,1,5.142.484c.6.242.621-.036.617-.5-.01-1.935.038-3.87-.025-5.8-.027-.825.249-1.034,1.019-.981a20.82,20.82,0,0,0,2.758,0c.737-.046.971.164.962.941C402.1,60.794,402.132,64.506,402.132,68.216Z" transform="translate(-313.388 -46.334)"/><path class="b" d="M604.986,64.144a9.151,9.151,0,0,1,6.2-1.246,6.408,6.408,0,0,1,5.8,4.979,14.405,14.405,0,0,1-.1,7.889,7.03,7.03,0,0,1-6.295,5.276,34.842,34.842,0,0,1-9.742-.5c-.571-.082-.541-.381-.541-.762V56.937c0-.6.122-.853.777-.819a25.757,25.757,0,0,0,3.047,0c.762-.05.891.261.88.935C604.964,59.364,604.986,61.674,604.986,64.144Z" transform="translate(-488.709 -46.313)"/><path class="b" d="M503.884,102.046c-1.777,0-3.554.027-5.333-.013-.642-.013-.741.211-.642.783A3.592,3.592,0,0,0,501,105.64a19.392,19.392,0,0,0,5.3.12c.444-.029.884-.082,1.333-.145,1.476-.21,1.476-.211,1.476,1.314,0,2.373,0,2.373-2.394,2.535A24.143,24.143,0,0,1,500,109.32c-4.205-.9-6.476-3.47-6.778-7.75a14.531,14.531,0,0,1,.322-4.72,6.955,6.955,0,0,1,6.346-5.523,14.423,14.423,0,0,1,4.257.074c3.6.636,5.615,2.977,5.961,6.955.08.912,0,1.838.019,2.758,0,.691-.229.99-1.006.952C507.373,102,505.628,102.046,503.884,102.046Z" transform="translate(-401.482 -74.721)"/><path class="b" d="M891.315,90.986a10.475,10.475,0,0,1,2.834.234c4.021.842,6.135,3.619,6.285,8.218a14.19,14.19,0,0,1-.486,4.613,6.965,6.965,0,0,1-5.316,5.036,13.4,13.4,0,0,1-6.773-.051,6.935,6.935,0,0,1-5.159-5.2,13.848,13.848,0,0,1-.168-6.6c.838-3.9,3.381-5.963,7.643-6.251C890.553,90.963,890.934,90.986,891.315,90.986Z" transform="translate(-718.233 -74.532)"/><path class="a" d="M756.267,66.295c0-3.2.011-6.407-.013-9.612,0-.6.145-.853.792-.817.884.051,1.775.027,2.666,0,.449,0,.743.122.762.617a.788.788,0,0,0,.036.19c.23.849.208,1.979.762,2.476.649.592,1.817.131,2.756.206.811.063,1.847-.349,2.375.19.484.491.133,1.512.143,2.3.021,1.9,0,1.9-1.95,1.9-.729,0-1.461.023-2.188,0-.5-.021-.655.19-.651.669.021,3.2-.015,6.407.042,9.61.032,1.807.952,2.611,2.781,2.626,1.973.015,1.973.015,1.973,1.975,0,2.388,0,2.388-2.421,2.388-1.015,0-2.036.063-3.047-.019-3.118-.259-4.718-2.019-4.8-5.379-.07-3.106-.015-6.217-.015-9.332Z" transform="translate(-615.53 -46.11)"/><path class="a" d="M820.413,66.246c0-3.171.017-6.342-.013-9.513,0-.665.19-.9.857-.861a24.4,24.4,0,0,0,2.476,0c.528-.019.863.124.9.7a1.343,1.343,0,0,0,.082.272c.24.809.084,1.9.729,2.379s1.659.109,2.512.135c.7.021,1.4.025,2.1,0,.5-.019.67.173.657.665-.027,1.015-.031,2.03,0,3.047.017.549-.19.714-.72.7-1.143-.029-2.285.01-3.428-.017-.488-.011-.667.145-.663.649.017,3.238-.019,6.476.023,9.713a2.393,2.393,0,0,0,2.666,2.554c2.106.032,2.106.032,2.106,2.133,0,2.23,0,2.23-2.207,2.23h-2.565c-3.539,0-5.476-1.9-5.5-5.453C820.4,72.462,820.413,69.352,820.413,66.246Z" transform="translate(-668.192 -46.115)"/><path class="a" d="M198.884,139.673a4.259,4.259,0,0,1-2.817-1.825c-.145-.4.211-.571.409-.775,1.771-1.859,3.523-3.733,5.354-5.523.621-.611.56-.926-.034-1.482-1.828-1.714-3.588-3.485-5.4-5.209-.444-.419-.446-.669-.036-1.143,1.9-2.185,2.489-2.236,4.55-.227q2.824,2.754,5.626,5.523c1.169,1.16,1.215,2.175.09,3.379-2.076,2.221-4.19,4.4-6.285,6.6A1.924,1.924,0,0,1,198.884,139.673Z" transform="translate(-159.561 -99.675)"/><path class="b" d="M708.255,100.138c0-2.79.023-5.58-.015-8.369,0-.67.179-.88.848-.842a25.348,25.348,0,0,0,2.946,0c.71-.044.92.177.912.9-.034,3.619-.015,7.237-.015,10.843,0,1.935-.034,3.868.015,5.8.021.762-.23.985-.969.939a25.808,25.808,0,0,0-2.948,0c-.638.034-.792-.19-.786-.8C708.274,105.781,708.255,102.961,708.255,100.138Z" transform="translate(-576.354 -74.493)"/><path class="c" d="M98.129,144.641c-2.666,0-5.333-.032-8,.019-.779.015-.983-.242-.931-.968a17.068,17.068,0,0,0,0-2.377c-.05-.7.24-.848.878-.846q8.089.032,16.176,0c.636,0,.922.131.876.83a19.569,19.569,0,0,0,0,2.567c.042.655-.223.79-.821.785C103.583,144.626,100.856,144.641,98.129,144.641Z" transform="translate(-72.205 -114.363)"/><path class="c" d="M273.474,147.79a3.782,3.782,0,0,1,3.771,3.824,3.928,3.928,0,0,1-3.75,3.72,3.879,3.879,0,0,1-3.76-3.887A3.758,3.758,0,0,1,273.474,147.79Z" transform="translate(-219.524 -120.53)"/><path class="d" d="M710.759,59.914c-2.409,0-2.409,0-2.409-2.314,0-1.449,0-1.449,1.44-1.449.789,0,1.583.05,2.365-.013.745-.061.971.24.874.92a3.28,3.28,0,0,0,0,.474c-.046.75.32,1.714-.141,2.2C712.369,60.268,711.382,59.8,710.759,59.914Z" transform="translate(-576.445 -45.696)"/><path class="e" d="M417,117.275c0,1.236-.049,2.476.019,3.708.038.7-.24.952-.872,1.053a12.7,12.7,0,0,1-2.925.255,3.767,3.767,0,0,1-3.594-2.634,8.683,8.683,0,0,1-.242-5.055,3.5,3.5,0,0,1,3.4-2.8,7.793,7.793,0,0,1,3.362.425,1.107,1.107,0,0,1,.876,1.242C416.943,114.737,417,116.005,417,117.275Z" transform="translate(-332.964 -91.106)"/><path class="e" d="M625.463,112.4a9.877,9.877,0,0,1,3.714-.606,3,3,0,0,1,3.082,2.324,9.373,9.373,0,0,1-.225,5.963,3.531,3.531,0,0,1-3.428,2.413,13.522,13.522,0,0,1-3.2-.333c-.524-.1-.665-.356-.657-.844C624.785,119.985,624.962,112.578,625.463,112.4Z" transform="translate(-508.458 -91.122)"/><path class="e" d="M521.735,114.662H518.5c-.274,0-.592.072-.541-.415a3.548,3.548,0,0,1,3.786-3.428c2.476.023,3.887,1.188,3.914,3.274,0,.493-.169.59-.6.583C523.954,114.641,522.844,114.662,521.735,114.662Z" transform="translate(-421.538 -90.218)"/><path class="e" d="M906.81,115.644a8.774,8.774,0,0,1,.668-3.584c.9-1.806,2.476-2.232,4.3-2.106a3.551,3.551,0,0,1,3.358,2.373,9.008,9.008,0,0,1,0,6.417c-.638,1.729-1.943,2.476-3.969,2.476a3.791,3.791,0,0,1-3.836-2.556,5.887,5.887,0,0,1-.324-1.19C906.905,116.844,906.867,116.21,906.81,115.644Z" transform="translate(-738.144 -89.623)"/></g></g></svg>