<svg xmlns="http://www.w3.org/2000/svg" width="60" height="40" viewBox="0 0 60 40"><defs><style>.a{fill:#324e6f;}</style></defs><g transform="translate(-241 -1219.166)"><g transform="translate(241 1219.166)"><g transform="translate(0 0)"><path class="a" d="M56.923,16.667H3.077A3.086,3.086,0,0,0,0,19.743V53.59a3.086,3.086,0,0,0,3.077,3.077H56.923A3.086,3.086,0,0,0,60,53.59V19.743A3.086,3.086,0,0,0,56.923,16.667Zm-1.155,2.308-24,18a3.217,3.217,0,0,1-3.54,0l-24-18ZM42.949,38.162,56.026,54.316c.013.016.029.028.043.043H3.931c.014-.015.03-.027.043-.043L17.051,38.162a1.154,1.154,0,0,0-1.794-1.452l-12.949,16V20.416l24.538,18.4a5.508,5.508,0,0,0,6.307,0l24.538-18.4V52.706l-12.949-16a1.154,1.154,0,0,0-1.794,1.452Z" transform="translate(0 -16.667)"/></g></g></g></svg>