<svg xmlns="http://www.w3.org/2000/svg" width="100" height="60.521" viewBox="0 0 100 60.521"><defs><style>.a{fill:#6cf5c2;}.b{fill:#3cb195;}.c{fill:#324e6f;}</style></defs><g transform="translate(0 -100.839)"><g transform="translate(21.301 102.69)"><path class="a" d="M181.034,117.313,132.14,158.08l-.05.041-2.36.421a5.739,5.739,0,0,1-6.693-4.492l-5.312-28.164a5.607,5.607,0,0,1,4.617-6.513l1.427-.255,50.072-8.937a5.739,5.739,0,0,1,6.693,4.492Z" transform="translate(-117.63 -110.088)"/><path class="b" d="M133.055,192.133l-.915.765-.05.041-2.36.423a5.741,5.741,0,0,1-6.693-4.516l-5.312-28.314a5.634,5.634,0,0,1,4.617-6.548l1.427-.256,3.711-.666a5.61,5.61,0,0,0-3.861,6.358l5.312,28.308A5.668,5.668,0,0,0,133.055,192.133Z" transform="translate(-117.63 -144.91)"/><path class="a" d="M224.153,182.69l-50.014,8.928a6.494,6.494,0,0,1-7.572-5.081l-5.041-26.716a6.342,6.342,0,0,1,5.224-7.365l50.014-8.928a6.494,6.494,0,0,1,7.572,5.081l5.041,26.716A6.342,6.342,0,0,1,224.153,182.69Z" transform="translate(-152.655 -136.751)"/><g transform="translate(8.764 14.411)"><circle class="b" cx="11.763" cy="11.763" r="11.763" transform="translate(22.616 4.113)"/><path class="b" d="M176.412,228.91l-2.272.416a6.506,6.506,0,0,1-7.573-5.224l-5.04-27.468a6.5,6.5,0,0,1,5.224-7.571l1.033-.19a6.463,6.463,0,0,0-.841,4.551l5.628,30.678A6.5,6.5,0,0,0,176.412,228.91Z" transform="translate(-161.419 -188.873)"/></g></g><g transform="translate(0 100.839)"><path class="c" d="M438.781,246.54,436.3,232.9a1.5,1.5,0,1,0-2.954.537l2.478,13.639A5,5,0,0,1,431.8,252.9l-9.663,1.809a1.5,1.5,0,0,0,.274,2.977c.092,0,9.936-1.834,9.936-1.834a8.006,8.006,0,0,0,6.429-9.316Z" transform="translate(-338.914 -206.477)"/><path class="c" d="M164.295,150.183l-33.266,5.966a5.068,5.068,0,0,1-3.746-.784,4.851,4.851,0,0,1-2.08-3.143l-5.04-26.841a4.906,4.906,0,0,1,4.018-5.694l50.014-8.97a5.062,5.062,0,0,1,3.743.785,4.852,4.852,0,0,1,2.08,3.142l1.277,6.8a1.5,1.5,0,0,0,1.747,1.178,1.47,1.47,0,0,0,1.206-1.708l-1.277-6.8a7.761,7.761,0,0,0-3.328-5.027,8.1,8.1,0,0,0-5.991-1.256l-.142.025-.227-1.209a7.027,7.027,0,0,0-3.015-4.554,7.34,7.34,0,0,0-5.427-1.136l-51.5,9.235a7.108,7.108,0,0,0-5.823,8.249l5.312,28.294a7.22,7.22,0,0,0,7.129,5.807,7.429,7.429,0,0,0,1.312-.117l.884-.159.091.484a7.972,7.972,0,0,0,7.872,6.412,8.2,8.2,0,0,0,1.449-.129l33.266-5.966a1.47,1.47,0,0,0,1.205-1.708A1.5,1.5,0,0,0,164.295,150.183Zm-43.561-.643a4.247,4.247,0,0,1-4.946-3.334l-5.312-28.294a4.165,4.165,0,0,1,3.411-4.834l51.5-9.235a4.3,4.3,0,0,1,3.18.666,4.117,4.117,0,0,1,1.766,2.668l.227,1.209L123.64,116.8a7.848,7.848,0,0,0-6.429,9.109l4.407,23.471Z" transform="translate(-88.148 -100.839)"/><path class="c" d="M267.014,214.471a13.264,13.264,0,1,0,13.264-13.265A13.279,13.279,0,0,0,267.014,214.471Zm23.527,0a10.262,10.262,0,1,1-10.262-10.262A10.274,10.274,0,0,1,290.541,214.471Z" transform="translate(-215.155 -181.889)"/><path class="c" d="M1.858,294.133l9.052-2.213A1.5,1.5,0,0,0,10.2,289l-9.052,2.213a1.5,1.5,0,1,0,.713,2.916Z" transform="translate(0 -252.211)"/><path class="c" d="M68.826,369.744l-9.052,2.213a1.5,1.5,0,1,0,.713,2.916l9.052-2.213a1.5,1.5,0,1,0-.713-2.916Z" transform="translate(-46.895 -317.247)"/><path class="c" d="M27.269,324.184,13.188,327.8a1.5,1.5,0,1,0,.748,2.908l14.081-3.621a1.5,1.5,0,1,0-.748-2.907Z" transform="translate(-9.647 -280.542)"/><path class="c" d="M82.91,282.124a1.5,1.5,0,0,0,.347-.041l1.9-.45a1.5,1.5,0,0,0-.691-2.922l-1.9.45a1.5,1.5,0,0,0,.344,2.962Z" transform="translate(-65.492 -243.906)"/><path class="c" d="M9.774,391.022l-3.42.8a1.5,1.5,0,1,0,.687,2.922l3.42-.8a1.5,1.5,0,0,0-.687-2.923Z" transform="translate(-4.157 -334.269)"/></g></g></svg>